<?xml version="1.0" standalone="no"?>
<!DOCTYPE svg PUBLIC "-//W3C//DTD SVG 20010904//EN"
 "http://www.w3.org/TR/2001/REC-SVG-20010904/DTD/svg10.dtd">
<svg version="1.0" xmlns="http://www.w3.org/2000/svg"
 width="644.000000pt" height="580.000000pt" viewBox="0 0 644.000000 580.000000"
 preserveAspectRatio="xMidYMid meet">

<g transform="translate(0.000000,580.000000) scale(0.100000,-0.100000)"
fill="#000000" stroke="none">
<path d="M4650 5642 c-133 -67 -398 -286 -562 -463 -92 -100 -194 -183 -468
-382 -664 -484 -1177 -717 -1590 -721 -186 -1 -297 33 -391 120 -58 55 -91
106 -119 188 -35 103 -43 176 -45 436 -2 266 -6 293 -47 338 -31 32 -91 30
-144 -6 -43 -28 -216 -176 -293 -250 -42 -41 -51 -69 -13 -41 127 93 334 219
359 219 18 0 17 -79 -4 -253 -25 -209 -22 -460 5 -560 51 -186 173 -339 333
-415 211 -102 457 -115 753 -40 235 59 527 191 821 370 77 47 141 85 143 83 1
-1 -35 -58 -82 -126 -172 -255 -336 -539 -636 -1104 -243 -457 -385 -698 -643
-1085 -222 -333 -270 -396 -308 -404 -63 -12 -250 -5 -400 15 -348 47 -521 4
-694 -176 -179 -185 -346 -515 -374 -738 -25 -207 60 -377 227 -455 52 -25 67
-27 182 -27 104 0 137 4 195 23 300 100 576 336 902 773 l125 167 61 12 c96
18 425 131 602 206 172 73 656 310 919 451 346 185 670 380 826 498 149 113
345 240 610 397 281 167 324 192 440 263 47 29 159 96 250 150 91 54 190 113
220 132 30 19 91 56 135 83 44 27 100 63 125 80 25 17 110 74 190 126 80 51
141 94 137 94 -15 0 -48 -20 -267 -165 -118 -77 -264 -170 -325 -205 -60 -35
-155 -91 -210 -125 -127 -79 -600 -346 -815 -460 -251 -134 -392 -198 -603
-271 -54 -19 -250 -98 -435 -176 -520 -217 -661 -274 -857 -348 -165 -62 -569
-197 -639 -214 -28 -7 -29 -7 -14 16 120 185 508 840 718 1213 443 786 615
1054 999 1550 301 389 391 484 629 661 105 79 214 155 240 168 93 47 139 126
129 218 -8 64 -39 114 -96 149 -37 24 -56 29 -105 29 -38 -1 -74 -8 -96 -18z
m-3422 -4528 c75 -9 139 -18 141 -20 7 -7 -191 -196 -276 -264 -45 -36 -116
-86 -159 -112 -84 -49 -208 -97 -220 -85 -15 14 27 163 70 251 83 168 165 242
274 245 18 1 95 -6 170 -15z"/>
<path d="M2280 4996 c-230 -27 -404 -66 -580 -128 l-95 -34 -3 -97 c-1 -53 1
-97 6 -97 4 0 62 20 128 44 204 76 396 116 650 136 216 17 517 -9 731 -64 l91
-23 96 61 c53 34 96 64 96 67 0 7 -209 69 -295 88 -224 51 -609 72 -825 47z"/>
<path d="M1030 4507 c-289 -219 -513 -492 -665 -810 -150 -315 -216 -599 -218
-947 -2 -344 72 -666 228 -988 l75 -155 68 64 c37 35 68 64 70 65 2 1 -17 42
-41 90 -242 484 -284 1047 -116 1549 124 372 361 708 678 962 23 19 24 21 15
127 l-9 108 -85 -65z"/>
<path d="M4125 4355 l-57 -65 34 -26 c70 -56 276 -274 349 -370 98 -127 153
-218 233 -385 80 -165 127 -301 161 -461 14 -67 27 -123 28 -124 1 -1 39 20
85 48 76 46 82 51 76 76 -48 215 -84 327 -159 492 -117 257 -256 463 -459 678
-84 89 -210 202 -225 202 -5 0 -34 -29 -66 -65z"/>
<path d="M4974 2564 l-82 -44 -7 -77 c-20 -222 -78 -445 -171 -655 -193 -435
-562 -806 -1015 -1022 -283 -135 -532 -200 -865 -226 -310 -24 -688 31 -995
145 l-89 33 -50 -76 c-57 -90 -66 -77 94 -136 134 -51 336 -101 507 -127 192
-30 544 -32 724 -6 460 68 859 235 1192 499 180 143 284 249 423 433 225 299
377 674 419 1035 21 182 24 270 10 269 -8 -1 -51 -21 -95 -45z"/>
</g>
</svg>
